<?xml version="1.0" encoding="UTF-8"?>
<svg width="239px" height="239px" viewBox="0 0 239 239" version="1.1" xmlns="http://www.w3.org/2000/svg" xmlns:xlink="http://www.w3.org/1999/xlink">
    <title>Passive Income</title>
    <defs>
        <linearGradient x1="50%" y1="100%" x2="50%" y2="0%" id="linearGradient-1">
            <stop stop-color="#E9A254" offset="0%"></stop>
            <stop stop-color="#F4BB79" offset="100%"></stop>
        </linearGradient>
        <linearGradient x1="-483.333333%" y1="100%" x2="-466.666667%" y2="0%" id="linearGradient-2">
            <stop stop-color="#E9A254" offset="0%"></stop>
            <stop stop-color="#F4BB79" offset="100%"></stop>
        </linearGradient>
        <linearGradient x1="50%" y1="100%" x2="50%" y2="0%" id="linearGradient-3">
            <stop stop-color="#474F72" offset="0%"></stop>
            <stop stop-color="#878C9F" offset="100%"></stop>
        </linearGradient>
        <linearGradient x1="49.3732625%" y1="100%" x2="49.3732625%" y2="0%" id="linearGradient-4">
            <stop stop-color="#474F72" offset="0%"></stop>
            <stop stop-color="#878C9F" offset="100%"></stop>
        </linearGradient>
        <linearGradient x1="-110%" y1="100%" x2="-105%" y2="0%" id="linearGradient-5">
            <stop stop-color="#E9A254" offset="0%"></stop>
            <stop stop-color="#F4BB79" offset="100%"></stop>
        </linearGradient>
    </defs>
    <g id="Page-1" stroke="none" stroke-width="1" fill="none" fill-rule="evenodd">
        <g id="img1" transform="translate(-1328.000000, -1683.000000)" fill-rule="nonzero">
            <g id="Group-2-Copy" transform="translate(0.000000, 1437.000000)">
                <g id="Passive-Income" transform="translate(1328.000000, 246.000000)">
                    <circle id="Oval" fill="url(#linearGradient-1)" cx="120" cy="15" r="11"></circle>
                    <circle id="Oval" fill="url(#linearGradient-2)" cx="120" cy="224" r="11"></circle>
                    <circle id="Oval" fill="url(#linearGradient-1)" cx="193" cy="46" r="11"></circle>
                    <circle id="Oval" fill="url(#linearGradient-1)" cx="46" cy="193" r="11"></circle>
                    <circle id="Oval" fill="url(#linearGradient-1)" cx="193" cy="193" r="11"></circle>
                    <circle id="Oval" fill="url(#linearGradient-1)" cx="46" cy="46" r="11"></circle>
                    <circle id="Oval" fill="url(#linearGradient-1)" cx="224" cy="119" r="11"></circle>
                    <circle id="Oval" fill="url(#linearGradient-1)" cx="15" cy="119" r="11"></circle>
                    <path d="M169.629887,107.45125 L178,102.616875 L163.119798,76.883125 L154.749685,81.6803125 C148.831225,76.0881999 141.683373,71.9614719 133.880202,69.6315625 L133.880202,60 L104.119798,60 L104.119798,69.6315625 C96.3166266,71.9614719 89.1687749,76.0881999 83.2503153,81.6803125 L74.8802018,76.883125 L60,102.616875 L68.3701135,107.45125 C66.4351823,115.367306 66.4351823,123.632694 68.3701135,131.54875 L60,136.383125 L74.8802018,162.116875 L83.2503153,157.319687 C89.1687749,162.9118 96.3166266,167.038528 104.119798,169.368437 L104.119798,179 L133.880202,179 L133.880202,169.368437 C141.683373,167.038528 148.831225,162.9118 154.749685,157.319687 L163.119798,162.116875 L178,136.383125 L169.629887,131.54875 C171.564818,123.632694 171.564818,115.367306 169.629887,107.45125 Z" id="Path" fill="url(#linearGradient-3)"></path>
                    <path d="M169.629887,131.962353 L178,136.856471 L163.119798,162.908235 L154.749685,158.051765 C148.831225,163.712984 141.683373,167.89071 133.880202,170.249412 L133.880202,180 L104.119798,180 L104.119798,170.249412 C96.3166266,167.89071 89.1687749,163.712984 83.2503153,158.051765 L74.8802018,162.908235 L60,136.856471 L68.3701135,131.962353 C67.0692441,126.75029 66.5797529,121.364761 66.9192938,116 C66.9192938,145.108655 90.2366202,168.705882 119,168.705882 C147.76338,168.705882 171.080706,145.108655 171.080706,116 C171.440212,121.365023 170.950433,126.753718 169.629887,131.962353 Z" id="Path" fill="#42455E"></path>
                    <path d="M68.1211979,107 C70.0111979,108.376033 68.5111979,106.293388 68.1211979,116 C67.8865791,113.007049 67.8865791,109.992951 68.1211979,107 L68.1211979,107 Z" id="Path" fill="url(#linearGradient-4)"></path>
                    <circle id="Oval" fill="url(#linearGradient-5)" cx="119.5" cy="119.5" r="37.5"></circle>
                    <circle id="Oval" fill="url(#linearGradient-5)" cx="119.5" cy="119.5" r="37.5"></circle>
                    <path d="M156.811889,123 C154.888297,103.949957 138.760008,89.4460681 119.5,89.4460681 C100.239992,89.4460681 84.111703,103.949957 82.1881111,123 C80.7604136,108.860982 87.5434439,95.1449299 99.6779665,87.6335414 C111.812489,80.1221529 127.187511,80.1221529 139.322034,87.6335414 C151.456556,95.1449299 158.239586,108.860982 156.811889,123 Z" id="Path" fill="#F2A961"></path>
                    <path d="M119,78 C96.3563253,78 78,96.3563253 78,119 C78,141.643675 96.3563253,160 119,160 C141.643675,160 160,141.643675 160,119 C160,108.126124 155.68037,97.6976135 147.991378,90.008622 C140.302387,82.3196305 129.873876,78 119,78 Z M119,152.545455 C100.473357,152.545455 85.4545455,137.526643 85.4545455,119 C85.4545455,100.473357 100.473357,85.4545455 119,85.4545455 C137.526643,85.4545455 152.545455,100.473357 152.545455,119 C152.545455,127.896808 149.011211,136.429225 142.720218,142.720218 C136.429225,149.011211 127.896808,152.545455 119,152.545455 Z" id="Shape" fill="#000000"></path>
                    <path d="M115.25,107.857143 L130.25,107.857143 C132.321068,107.857143 134,106.1942 134,104.142857 C134,102.091514 132.321068,100.428571 130.25,100.428571 L122.75,100.428571 L122.75,96.7142857 C122.75,94.6629424 121.071068,93 119,93 C116.928932,93 115.25,94.6629424 115.25,96.7142857 L115.25,100.428571 C109.036797,100.428571 104,105.417399 104,111.571429 C104,117.725459 109.036797,122.714286 115.25,122.714286 L122.75,122.714286 C124.821068,122.714286 126.5,124.377228 126.5,126.428571 C126.5,128.479915 124.821068,130.142857 122.75,130.142857 L107.75,130.142857 C105.678932,130.142857 104,131.8058 104,133.857143 C104,135.908486 105.678932,137.571429 107.75,137.571429 L115.25,137.571429 L115.25,141.285714 C115.25,143.337058 116.928932,145 119,145 C121.071068,145 122.75,143.337058 122.75,141.285714 L122.75,137.571429 C128.963203,137.571429 134,132.582601 134,126.428571 C134,120.274541 128.963203,115.285714 122.75,115.285714 L115.25,115.285714 C113.178932,115.285714 111.5,113.622772 111.5,111.571429 C111.5,109.520085 113.178932,107.857143 115.25,107.857143 Z" id="Path" fill="#000000"></path>
                    <path d="M209.471584,115.765625 L175.368088,115.765625 C175.231413,113.58646 174.969796,111.41695 174.584528,109.267813 L180.62913,105.794844 C182.260027,104.701524 182.765637,102.53047 181.785814,100.828125 L167.905616,76.3679688 L185.890173,58.405625 C192.626286,62.3929506 201.295756,60.4955588 205.754169,54.05821 C210.212582,47.6208612 208.945605,38.8300484 202.851198,33.9161861 C196.75679,29.0023238 187.904963,29.6344416 182.569373,35.3645313 C177.980771,40.1506334 177.170102,47.4221756 180.591818,53.1028125 C154.697041,79.019375 158.876025,75.2103125 155.891036,76.9654688 C150.623247,72.4797726 144.578151,68.9990191 138.055729,66.6959375 L138.055729,59.75 C138.055729,57.6875616 136.385197,56.015625 134.324493,56.015625 L123.130785,56.015625 L123.130785,29.3521875 C140.369095,24.8709375 136.451297,0 119.399549,0 C102.347801,0 98.5792528,24.9082812 115.668313,29.3521875 L115.668313,56.015625 L104.474605,56.015625 C102.413901,56.015625 100.74337,57.6875616 100.74337,59.75 L100.74337,66.6959375 C94.273654,69.0154288 88.2804064,72.4954492 83.0573114,76.9654687 C80.0350103,75.1729687 84.1020574,78.9073437 58.3565296,53.1028125 C67.1995587,38.1653125 47.1628219,22.705 34.9616805,34.9910937 C22.7605391,47.2771875 37.8720445,67.368125 53.0581746,58.405625 L70.8934823,76.3679688 C55.9685387,102.247187 55.9685387,101.388281 56.4909117,103.516875 C57.0132847,105.645469 58.1326555,105.7575 64.2518824,109.267812 C63.9166311,111.419849 63.7048473,113.589341 63.6175723,115.765625 L29.3275143,115.765625 C27.3766446,108.57319 20.4271443,103.920373 13.0402077,104.860978 C5.65327104,105.801582 0.0892493008,112.047789 0,119.5 C0,136.678125 24.8500312,140.375156 29.3275143,123.234375 L63.6175723,123.234375 C63.7542468,125.41354 64.0158642,127.58305 64.4011318,129.732188 L58.3565296,133.205156 C56.6587878,134.238625 56.0681754,136.422446 57.0132847,138.171875 L70.8934823,162.632031 L52.9089252,180.594375 C48.3050241,177.933947 42.6347112,177.925324 38.0227536,180.571738 C33.4107959,183.218151 30.5534864,188.120058 30.5215097,193.440625 C30.5215097,205.54 44.7748309,214.091719 56.416287,203.560781 C60.8481478,198.722622 61.6051021,191.55581 58.2819049,185.897188 C84.1766821,159.980625 79.9976979,163.789687 82.9826867,162.034531 C88.228132,166.512373 94.2473,169.992759 100.74337,172.304063 L100.74337,179.25 C100.74337,181.312438 102.413901,182.984375 104.474605,182.984375 L115.668313,182.984375 L115.668313,209.647813 C98.915064,214.017031 101.937365,239 119.399549,239 C136.861733,239 140.257158,214.129063 123.130785,209.647813 L123.130785,182.984375 L134.324493,182.984375 C136.385197,182.984375 138.055729,181.312438 138.055729,179.25 L138.055729,172.304063 C144.525444,169.984571 150.518692,166.504551 155.741787,162.034531 C158.764088,163.827031 154.697041,160.092656 180.442569,185.897188 C177.111777,191.597446 177.915888,198.81017 182.420124,203.635469 C187.74,209.38898 196.598726,210.047821 202.709843,205.144454 C208.82096,200.241088 210.105188,191.443862 205.651195,184.995594 C201.197202,178.547325 192.520439,176.642007 185.778236,180.631719 L167.905616,162.632031 C182.83056,136.752813 182.83056,137.611719 182.308187,135.483125 C181.785814,133.354531 180.666443,133.2425 174.547216,129.732188 C174.944998,127.583779 175.219073,125.414264 175.368088,123.234375 L209.658146,123.234375 C214.135629,140.487188 238.98566,136.566094 238.98566,119.5 C239.323543,111.733373 233.652902,105.005723 225.946789,104.030679 C218.240676,103.055635 211.075564,108.159195 209.471584,115.765625 Z M111.937077,14.9375 C111.937077,10.8126233 115.27814,7.46875 119.399549,7.46875 C123.520959,7.46875 126.862021,10.8126233 126.862021,14.9375 C126.862021,19.0623767 123.520959,22.40625 119.399549,22.40625 C115.27814,22.40625 111.937077,19.0623767 111.937077,14.9375 Z M126.862021,224.0625 C126.862021,228.187377 123.520959,231.53125 119.399549,231.53125 C115.27814,231.53125 111.937077,228.187377 111.937077,224.0625 C111.937077,219.937623 115.27814,216.59375 119.399549,216.59375 C123.520959,216.59375 126.862021,219.937623 126.862021,224.0625 Z M198.539063,40.2939062 C200.939119,42.6817905 201.433194,46.3871585 199.742791,49.3213846 C198.052388,52.2556107 194.600745,53.6840301 191.33347,52.8014778 C188.066195,51.9189255 185.80134,48.9463727 185.815482,45.559375 C185.82818,42.5483059 187.646189,39.8393197 190.426451,38.6887426 C193.206713,37.5381656 196.405393,38.1710573 198.539063,40.2939062 Z M40.2600355,50.8621875 C37.3481442,47.9446024 37.3498958,43.2171621 40.2639484,40.3017393 C43.1780009,37.3863165 47.9014677,37.3863165 50.8155202,40.3017393 C53.7295728,43.2171621 53.7313244,47.9446024 50.8194331,50.8621875 C47.8566057,53.6648497 43.2228629,53.6648497 40.2600355,50.8621875 Z M14.9249436,126.96875 C10.8035343,126.96875 7.46247182,123.624877 7.46247182,119.5 C7.46247182,115.375123 10.8035343,112.03125 14.9249436,112.03125 C19.046353,112.03125 22.3874155,115.375123 22.3874155,119.5 C22.3874155,123.624877 19.046353,126.96875 14.9249436,126.96875 Z M40.2600355,198.706094 C37.3481442,195.788509 37.3498958,191.061068 40.2639484,188.145646 C43.1780009,185.230223 47.9014677,185.230223 50.8155202,188.145646 C53.7295728,191.061068 53.7313244,195.788509 50.8194331,198.706094 C49.4197103,200.108554 47.5203433,200.896578 45.5397343,200.896578 C43.5591253,200.896578 41.6597583,200.108554 40.2600355,198.706094 Z M198.539063,188.137812 C200.935881,190.522418 201.432283,194.221478 199.749077,197.154531 C198.065872,200.087585 194.623292,201.522357 191.357548,200.651891 C188.091804,199.781425 185.818228,196.823042 185.815546,193.440625 C185.813157,190.422764 187.625652,187.700009 190.409271,186.539873 C193.19289,185.379737 196.400573,186.010219 198.539063,188.137812 Z M162.27145,157.217188 L157.122344,154.229688 C155.690258,153.398976 153.882527,153.611829 152.682173,154.7525 C139.137787,167.561406 130.593257,163.752344 130.593257,169.69 L130.593257,175.515625 L108.205841,175.515625 C108.205841,169.914063 108.840152,167.00125 105.556664,165.992969 C87.7213563,160.690156 86.9004844,151.279531 81.6767541,154.229688 L76.5276485,157.217188 L65.3339408,137.798438 C70.4830464,134.810938 73.0202868,134.064063 72.2367272,130.740469 C70.4572877,123.377886 70.4572877,115.696802 72.2367272,108.334219 C73.0202868,105.085313 70.4830464,104.226406 65.3339408,101.27625 L76.5276485,81.8575 L81.6767541,84.845 C86.7512349,87.7578125 87.8332933,78.3471875 105.556664,73.0817188 C108.728214,72.1107813 108.205841,69.3473438 108.205841,63.5590625 L130.593257,63.5590625 L130.593257,69.4967188 C130.593257,75.3223438 139.137787,71.5132813 152.682173,84.4342188 C155.107477,86.7495313 157.122344,84.9570313 162.27145,81.9695313 L173.465157,101.388281 C162.27145,107.886094 167.905616,103.890313 167.905616,119.686719 C167.905616,135.483125 162.196825,131.487344 173.465157,137.985156 L162.27145,157.217188 Z M223.874155,126.96875 C219.752745,126.96875 216.411683,123.624877 216.411683,119.5 C216.411683,115.375123 219.752745,112.03125 223.874155,112.03125 C227.995564,112.03125 231.336626,115.375123 231.336626,119.5 C231.336626,123.624877 227.995564,126.96875 223.874155,126.96875 Z" id="Shape" fill="#000000"></path>
                    <path d="M21.9505085,94.4428175 C22.2765542,92.4807449 20.9607847,90.6076793 18.9131626,90.1189995 C16.8655406,89.6303196 14.7586122,90.6865335 14.0494915,92.5571825 C13.7234458,94.5192551 15.0392153,96.3923207 17.0868374,96.8810005 C19.1344594,97.3696804 21.2413878,96.3134665 21.9505085,94.4428175 Z" id="Path" fill="#000000"></path>
                    <path d="M32.6721166,68.4190212 C33.451091,66.6255361 32.8000384,64.5095862 31.164856,63.5203572 C29.5296735,62.5311281 27.4403709,62.9892576 26.3278834,64.5809788 C25.548909,66.3744639 26.1999616,68.4904138 27.835144,69.4796428 C29.4703265,70.4688719 31.5596291,70.0107424 32.6721166,68.4190212 Z" id="Path" fill="#000000"></path>
                    <path d="M26.6929042,81.5363423 C27.2419631,80.2171801 27.0455469,78.7053058 26.1776439,77.5702278 C25.3097408,76.4351497 23.902206,75.8493132 22.485244,76.0333972 C21.0682821,76.2174813 19.8571634,77.1435191 19.3081045,78.4626812 C18.4593331,80.5019291 19.4244116,82.8431286 21.4636677,83.6918967 C23.5029238,84.5406647 25.8441327,83.5755902 26.6929042,81.5363423 L26.6929042,81.5363423 Z" id="Path" fill="#000000"></path>
                    <path d="M148.997675,18.9299527 C149.058847,17.151642 147.907199,15.5684505 146.227604,15.1218842 C144.54801,14.6753179 142.791364,15.4852601 142.002325,17.0700473 C141.941153,18.848358 143.092801,20.4315495 144.772396,20.8781158 C146.45199,21.3246821 148.208636,20.5147399 148.997675,18.9299527 L148.997675,18.9299527 Z" id="Path" fill="#000000"></path>
                    <path d="M162.691934,24.536643 C163.540599,22.4976439 162.575642,20.1567302 160.536643,19.3080657 C158.497644,18.4594012 156.15673,19.424358 155.308066,21.463357 C154.459401,23.5023561 155.424358,25.8432698 157.463357,26.6919343 C159.502356,27.5405988 161.84327,26.575642 162.691934,24.536643 L162.691934,24.536643 Z" id="Path" fill="#000000"></path>
                    <path d="M175.672117,31.4190212 C176.451091,29.6255361 175.800038,27.5095862 174.164856,26.5203572 C172.529674,25.5311281 170.440371,25.9892576 169.327883,27.5809788 C168.548909,29.3744639 169.199962,31.4904138 170.835144,32.4796428 C172.470326,33.4688719 174.559629,33.0107424 175.672117,31.4190212 Z" id="Path" fill="#000000"></path>
                    <path d="M221.979314,141.122717 C219.83795,140.581858 217.663577,141.879322 217.122717,144.020686 C216.581857,146.16205 217.879322,148.336423 220.020686,148.877283 C222.16205,149.418142 224.336423,148.120678 224.877283,145.979314 C225.418143,143.83795 224.120678,141.663577 221.979314,141.122717 Z" id="Path" fill="#000000"></path>
                    <path d="M211.419021,169.327883 C209.625536,168.548909 207.509586,169.199962 206.520357,170.835144 C205.531128,172.470326 205.989258,174.559629 207.580979,175.672117 C209.374464,176.451091 211.490414,175.800038 212.479643,174.164856 C213.468872,172.529674 213.010742,170.440371 211.419021,169.327883 Z" id="Path" fill="#000000"></path>
                    <path d="M217.519582,155.301018 C215.476691,154.461777 213.14026,155.437527 212.301018,157.480418 C211.461777,159.52331 212.437527,161.85974 214.480418,162.698982 C216.523309,163.538223 218.85974,162.562473 219.698982,160.519582 C220.538223,158.47669 219.562473,156.14026 217.519582,155.301018 Z" id="Path" fill="#000000"></path>
                    <path d="M68.4190212,206.327883 C66.6255361,205.548909 64.5095862,206.199962 63.5203572,207.835144 C62.5311281,209.470326 62.9892576,211.559629 64.5809788,212.672117 C66.3744639,213.451091 68.4904138,212.800038 69.4796428,211.164856 C70.4688719,209.529674 70.0107424,207.440371 68.4190212,206.327883 Z" id="Path" fill="#000000"></path>
                    <path d="M75.3010566,214.479741 C74.4617085,216.522883 75.4375827,218.8596 77.4807327,219.698945 C79.5238827,220.538289 81.860609,219.562419 82.6999571,217.519277 C83.2429202,216.197596 83.0395274,214.686647 82.166395,213.555588 C81.2932626,212.42453 79.8830402,211.845198 78.4669448,212.03582 C77.0508494,212.226443 75.8440196,213.15806 75.3010566,214.479741 L75.3010566,214.479741 Z" id="Path" fill="#000000"></path>
                    <path d="M94.9789868,217.121871 C93.5936172,216.771958 92.1268066,217.187711 91.1310883,218.212519 C90.13537,219.237327 89.7620173,220.715498 90.1516686,222.090218 C90.5413199,223.464939 91.6347779,224.527357 93.0201475,224.877269 C95.1617433,225.418187 97.3363507,224.120583 97.8772693,221.978989 C98.4181878,219.837395 97.1205825,217.662789 94.9789868,217.121871 Z" id="Path" fill="#000000"></path>
                    <path d="M26.6919344,157.463357 C25.8432698,155.424358 23.5023561,154.459401 21.4633571,155.308066 C19.4243581,156.15673 18.4594013,158.497644 19.3080656,160.536643 C20.1567302,162.575642 22.4976439,163.540599 24.5366429,162.691934 C26.5756419,161.84327 27.5405987,159.502356 26.6919344,157.463357 L26.6919344,157.463357 Z" id="Path" fill="#000000"></path>
                    <path d="M21.8741836,143.855562 L21.8741836,143.855562 C21.2552294,141.778241 19.0901036,140.57309 16.9953571,141.139914 C14.8592935,141.693566 13.5760952,143.870551 14.12808,146.004337 C14.6800649,148.138122 16.858558,149.422043 18.9958729,148.873227 C21.1331877,148.324411 22.4213239,146.150336 21.8741836,144.015307 L21.8741836,143.855562 Z" id="Path" fill="#000000"></path>
                    <path d="M32.6721166,170.580979 C31.5596291,168.989258 29.4703265,168.531128 27.835144,169.520357 C26.1999616,170.509586 25.548909,172.625536 26.3278834,174.419021 C27.4403709,176.010742 29.5296735,176.468872 31.164856,175.479643 C32.8000384,174.490414 33.451091,172.374464 32.6721166,170.580979 Z" id="Path" fill="#000000"></path>
                    <path d="M169.930946,206.576843 C168.046684,207.716005 167.437521,210.164036 168.568138,212.053526 C169.698756,213.943017 172.143848,214.563195 174.038248,213.440976 C175.932647,212.318757 176.563736,209.876288 175.450105,207.976735 C174.908905,207.053593 174.020381,206.385836 172.983192,206.122761 C171.946003,205.859686 170.846656,206.023236 169.930946,206.576843 Z" id="Path" fill="#000000"></path>
                    <path d="M157.456249,213.310027 C155.420734,214.161953 154.459844,216.501822 155.309046,218.538694 C156.158249,220.575565 158.496578,221.539582 160.534273,220.692884 C162.571968,219.846186 163.53886,217.508791 162.694888,215.469747 C162.288209,214.487208 161.507037,213.707099 160.524021,213.301833 C159.541005,212.896568 158.437087,212.899517 157.456249,213.310027 L157.456249,213.310027 Z" id="Path" fill="#000000"></path>
                    <path d="M144.032667,217.119635 C142.459815,217.511614 141.279069,218.814046 141.042841,220.417588 C140.806612,222.021131 141.561615,223.608689 142.954621,224.437523 C144.347626,225.266358 146.103174,225.17257 147.399929,224.200038 C148.696685,223.227507 149.278221,221.568546 148.872465,219.999301 C148.322921,217.87396 146.162893,216.588749 144.032667,217.119635 Z" id="Path" fill="#000000"></path>
                    <path d="M211.419021,69.6721166 C213.010742,68.5596291 213.468872,66.4703265 212.479643,64.835144 C211.490414,63.1999616 209.374464,62.548909 207.580979,63.3278834 C205.989258,64.4403709 205.531128,66.5296735 206.520357,68.164856 C207.509586,69.8000384 209.625536,70.451091 211.419021,69.6721166 Z" id="Path" fill="#000000"></path>
                    <path d="M212.300249,81.5199532 C212.913821,83.0136531 214.3653,83.9918891 215.979998,84 C217.742519,84.0087482 219.303054,82.8627065 219.822232,81.1782513 C220.34141,79.4937962 219.696842,77.668013 218.235225,76.6829443 C216.773607,75.6978756 214.839495,75.7857367 213.473198,76.8992693 C212.106902,78.012802 211.630504,79.8895074 212.300249,81.5199532 Z" id="Path" fill="#000000"></path>
                    <path d="M221.979314,97.8772826 C224.120678,97.3364225 225.418143,95.1620504 224.877283,93.0206864 C224.336423,90.8793224 222.16205,89.5818575 220.020686,90.1227174 C217.879322,90.6635775 216.581857,92.8379496 217.122717,94.9793136 C217.663577,97.1206776 219.83795,98.4181425 221.979314,97.8772826 L221.979314,97.8772826 Z" id="Path" fill="#000000"></path>
                    <path d="M69.6721166,27.5809788 C68.5596291,25.9892576 66.4703265,25.5311281 64.835144,26.5203572 C63.1999616,27.5095862 62.548909,29.6255361 63.3278834,31.4190212 C64.4403709,33.0107424 66.5296735,33.4688719 68.164856,32.4796428 C69.8000384,31.4904138 70.451091,29.3744639 69.6721166,27.5809788 Z" id="Path" fill="#000000"></path>
                    <path d="M79.0269535,26.9996769 C80.3599729,26.9985867 81.6037619,26.327074 82.3394932,25.2112605 C83.0752246,24.095447 83.2050013,22.6838036 82.6851231,21.45168 C81.8429463,19.4313752 79.5362983,18.4695921 77.5159704,19.2963431 C75.7313179,20.0039098 74.7046312,21.8898747 75.0753126,23.7796923 C75.445994,25.66951 77.1082906,27.0240281 79.0269535,26.9996769 Z" id="Path" fill="#000000"></path>
                    <path d="M97.8772825,17.0206864 C97.3364226,14.8793224 95.1620504,13.5818575 93.0206864,14.1227175 C90.8793224,14.6635774 89.5818575,16.8379496 90.1227175,18.9793136 C90.6635774,21.1206776 92.8379496,22.4181425 94.9793136,21.8772825 C97.1206776,21.3364226 98.4181425,19.1620504 97.8772825,17.0206864 L97.8772825,17.0206864 Z" id="Path" fill="#000000"></path>
                </g>
            </g>
        </g>
    </g>
</svg>