<svg width="352" height="390" viewBox="0 0 352 390" fill="none" xmlns="http://www.w3.org/2000/svg">
<path d="M184.5 58C106.904 58 44 120.904 44 198.5C44 276.097 106.904 339.001 184.5 339.001C262.097 339.001 325.001 276.097 325.001 198.5C325.001 120.904 262.096 58 184.5 58ZM184.5 303.876C126.304 303.876 79.1253 256.697 79.1253 198.5C79.1253 140.304 126.304 93.1253 184.5 93.1253C242.697 93.1253 289.876 140.304 289.876 198.5C289.876 256.697 242.697 303.876 184.5 303.876Z" fill="#F15E66"/>
<g clip-path="url(#clip0)">
<path d="M304.355 199.58L233.717 240.659C232.215 241.532 231.707 243.454 232.58 244.955L273.659 315.594C274.532 317.095 276.454 317.604 277.955 316.731L348.594 275.652C350.095 274.779 350.604 272.857 349.731 271.355L308.652 200.717C307.779 199.215 305.857 198.707 304.355 199.58ZM342.717 271.798L277.512 309.717L239.594 244.512L304.798 206.594L342.717 271.798L342.717 271.798Z" fill="#89CFF0"/>
</g>
<path d="M136.5 149C126.835 149 119 156.835 119 166.5C119 176.165 126.835 184 136.5 184C146.165 184 154 176.165 154 166.5C154 156.835 146.165 149 136.5 149ZM136.5 179.625C129.251 179.625 123.375 173.749 123.375 166.5C123.375 159.251 129.251 153.375 136.5 153.375C143.749 153.375 149.625 159.251 149.625 166.5C149.625 173.749 143.749 179.625 136.5 179.625Z" fill="#F15E66"/>
<g clip-path="url(#clip1)">
<path d="M221.813 143.319L207.549 151.614C207.245 151.791 207.143 152.179 207.319 152.482L215.614 166.747C215.791 167.05 216.179 167.153 216.482 166.976L230.747 158.681C231.05 158.505 231.153 158.117 230.976 157.813L222.681 143.549C222.505 143.245 222.117 143.143 221.813 143.319ZM229.56 157.903L216.393 165.56L208.735 152.393L221.903 144.735L229.56 157.903L229.56 157.903Z" fill="#89CFF0"/>
</g>
<path d="M106.5 36C80.2665 36 59 57.2665 59 83.5001C59 109.734 80.2665 131 106.5 131C132.734 131 154 109.734 154 83.5001C154 57.2665 132.734 36 106.5 36ZM106.5 119.125C86.8251 119.125 70.8751 103.175 70.8751 83.5001C70.8751 63.8251 86.8251 47.8751 106.5 47.8751C126.175 47.8751 142.125 63.8251 142.125 83.5001C142.125 103.175 126.175 119.125 106.5 119.125Z" fill="#89CFF0"/>
<path d="M116.807 228.816L142.853 221.837L135.874 247.882L116.807 228.816Z" fill="white" fill-opacity="0.02" stroke="#F15E66" stroke-width="2"/>
<path d="M53.5 275.331L149.002 330.5L53.5 385.669L53.5 275.331Z" fill="white" fill-opacity="0.02" stroke="#89CFF0" stroke-width="5"/>
<path d="M302.507 48.8345L325.859 62.3168L302.507 75.7992L302.507 48.8345Z" fill="white" fill-opacity="0.02" stroke="#89CFF0" stroke-width="2"/>
<path d="M11.5 148C5.14873 148 0 153.149 0 159.5C0 165.851 5.14873 171 11.5 171C17.8513 171 23.0001 165.851 23.0001 159.5C23.0001 153.149 17.8513 148 11.5 148ZM11.5 168.125C6.7366 168.125 2.87503 164.263 2.87503 159.5C2.87503 154.737 6.7366 150.875 11.5 150.875C16.2635 150.875 20.125 154.737 20.125 159.5C20.125 164.263 16.2635 168.125 11.5 168.125Z" fill="#89CFF0"/>
<path d="M100.5 347C90.835 347 83 354.835 83 364.5C83 374.165 90.835 382 100.5 382C110.165 382 118 374.165 118 364.5C118 354.835 110.165 347 100.5 347ZM100.5 377.625C93.2514 377.625 87.375 371.749 87.375 364.5C87.375 357.251 93.2514 351.375 100.5 351.375C107.749 351.375 113.625 357.251 113.625 364.5C113.625 371.749 107.749 377.625 100.5 377.625Z" fill="#F15E66"/>
<g clip-path="url(#clip2)">
<path d="M205.442 0.677221L175.165 18.2848C174.521 18.6591 174.303 19.4828 174.677 20.1265L192.285 50.4043C192.659 51.048 193.483 51.2659 194.127 50.8916L224.404 33.2841C225.048 32.9097 225.266 32.086 224.892 31.4423L207.284 1.16454C206.91 0.520842 206.086 0.302887 205.442 0.677221ZM221.885 31.6322L193.937 47.8853L177.684 19.9366L205.632 3.68349L221.885 31.6321L221.885 31.6322Z" fill="#F15E66"/>
</g>
<defs>
<clipPath id="clip0">
<rect width="88" height="88" fill="white" transform="translate(231 242.238) rotate(-30.1794)"/>
</clipPath>
<clipPath id="clip1">
<rect width="17.7707" height="17.7707" fill="white" transform="translate(207 151.934) rotate(-30.1794)"/>
</clipPath>
<clipPath id="clip2">
<rect width="37.7195" height="37.7195" fill="white" transform="translate(174 18.962) rotate(-30.1794)"/>
</clipPath>
</defs>
</svg>
