<?xml version="1.0" encoding="UTF-8"?>
<svg width="941px" height="952px" viewBox="0 0 941 952" version="1.1" xmlns="http://www.w3.org/2000/svg" xmlns:xlink="http://www.w3.org/1999/xlink">
    <title>drawkit-charts-and-graphs</title>
    <g id="Page-1" stroke="none" stroke-width="1" fill="none" fill-rule="evenodd">
        <g id="img1" transform="translate(-1712.000000, -4465.000000)">
            <g id="drawkit-charts-and-graphs" transform="translate(1712.000000, 4465.000000)">
                <path d="M347,136.501615 C347,91.8080066 373.923476,51.515463 415.21549,34.4131751 C456.507504,17.3108872 504.035851,26.7670449 535.637144,58.3720592 C567.238437,89.9770736 576.688998,137.506533 559.581848,178.796532 C542.474698,220.086532 502.178984,247.005262 457.485376,247 C428.180578,247 400.076219,235.357824 379.355818,214.634983 C358.635416,193.912142 346.99655,165.806413 347,136.501615 L347,136.501615 Z" id="Path" fill="#DDF1F9" fill-rule="nonzero"></path>
                <polygon id="Path" fill="#000000" fill-rule="nonzero" points="98.2568351 928 66 947.255507 66 952 129 952 129 928"></polygon>
                <polygon id="Path" fill="#000000" fill-rule="nonzero" points="264 930 295 930 295 951 264 951"></polygon>
                <polygon id="Path" fill="#DFDFDF" fill-rule="nonzero" points="19.4899641 592 134 626.09772 114.510036 692 0 657.90228"></polygon>
                <polygon id="Path" fill="#61CAD6" fill-rule="nonzero" points="117.628431 492 97 930.713463 131.761765 931 203 643.90343 201.298284 501.064974"></polygon>
                <path d="M298.99819,490.680406 C298.436933,503.174767 297.001157,931.7522 297.001157,931.7522 L262.934122,932 L157,501.466248 C157,501.466248 299.585553,478.199088 298.99819,490.680406 Z" id="Path" fill="#6BD5E1" fill-rule="nonzero"></path>
                <path d="M86.506068,370.238818 C79.4503659,382.164802 62.5531309,472.144649 62.7093457,493.191269 C57.2678633,512.045805 61.6809316,568.739894 61.8241285,576.255612 C61.9673254,583.77133 60.5223384,611.890033 62.1235402,618.805537 C57.8536688,629.713767 79.4503659,652.391402 86.0634594,652.978568 C92.6765528,653.565733 100.461257,641.939857 100.461257,636.329165 C100.461257,622.054519 91.1794943,609.985007 91.348727,604.087256 C92.2339442,574.637645 105.017523,499.532656 106.631742,494.483033 C108.245962,489.43341 113.687444,479.608175 118.24371,475.628497 C122.799975,471.64882 125,384.043731 125,384.043731 C125,384.043731 90.2682412,363.884383 86.506068,370.238818 Z" id="Path" fill="#E49D75" fill-rule="nonzero"></path>
                <path d="M179.31574,218.919186 C179.31574,222.624756 181.559622,256.627276 177.278192,264.260229 C172.996762,271.893181 219.550866,269.30972 219.550866,263.529553 C219.550866,257.749385 218.016257,230.910098 221.781852,221.1895 C225.547448,211.468902 179.31574,215.200568 179.31574,218.919186 Z" id="Path" fill="#E49D75" fill-rule="nonzero"></path>
                <path d="M339.201808,319.274024 L346.093263,324.281355 C346.093263,324.281355 405.297128,210.062196 406.014988,205.926271 C406.732848,201.790346 402.099388,191.619613 402.804196,186.768355 C403.509004,181.917097 427.328901,158.389147 434.794645,158.024977 C442.260388,157.660808 442.847728,161.341521 441.020448,164.97021 C439.193168,168.598899 424.90123,183.06163 424.90123,183.06163 C424.90123,183.06163 434.794645,180.343365 438.253424,183.06163 C441.712204,185.779895 454.829462,203.208006 449.908859,210.829553 C444.988255,218.4511 435.55166,222.261874 433.698277,226.800986 C431.844893,231.340099 375.59078,388.973463 368.686272,392.08191 C357.030838,397.284331 319.336666,379.075857 313.685151,370.127692 C308.033636,361.179527 339.201808,319.274024 339.201808,319.274024 Z" id="Path" fill="#E49D75" fill-rule="nonzero"></path>
                <path d="M156.28396,270.092167 C195.036607,284.072866 169.811444,386.950446 157.512543,394.103969 C147.775369,399.743242 76.6090411,377.342795 74.178015,366.599456 C70.570686,350.686784 122.602486,257.952064 156.28396,270.092167 Z" id="Path" fill="#FFC48E" fill-rule="nonzero"></path>
                <path d="M205.144414,251 C304.436379,250.674591 314.087772,476.908501 297.419555,492.388624 C267.421983,520.286723 123.107575,507.790564 116.821128,492.988022 C106.504571,468.725406 111.356353,251.300051 205.144414,251 Z" id="Path" fill="#FFD98E" fill-rule="nonzero"></path>
                <path d="M219.693548,291.118589 C236.850773,253.709477 337.389757,287.384206 343.452935,300.258686 C348.274729,310.430308 319.931987,379.411925 309.07315,380.939627 C292.935166,383.159365 204.770813,323.631219 219.693548,291.118589 Z" id="Path" fill="#FFE3AD" fill-rule="nonzero"></path>
                <path d="M162,170.493508 C162,138.188991 182.143979,112 207,112 C231.856021,112 252,138.188991 252,170.493508 C252,202.798025 231.856021,229 207,229 C182.143979,229 162,202.798025 162,170.493508 Z" id="Path" fill="#E49D75" fill-rule="nonzero"></path>
                <path d="M147.131383,163.012006 C145.492692,138.449206 159.629655,115.624094 164.662778,101.278374 C169.00661,87.4813968 177.668263,77.2381867 188.852981,76.7025086 C200.037698,76.1668305 203.159015,79.0150701 210.611158,78.7406984 C218.063301,78.4663267 231.003759,70 239.431314,70 C247.858868,70 252.891991,76.0492427 258.094185,79.8381852 C263.296379,83.6271277 274.03891,90.7607918 274,97.0452102 C273.778801,134.830113 239.405303,131.250215 229.404084,142.107495 C222.615221,147.84317 222.199045,161.235122 218.804614,163.417031 C215.410182,165.598939 208.062083,164.305472 207.932028,175.032099 C207.853995,181.342648 209.557713,186.503449 214.044606,186.908474 C218.531498,187.313499 220.118168,188.959729 220.027129,192.239124 C219.077729,223.883327 196.838349,229.828047 187.773525,228.913474 C175.067166,227.711465 171.464646,212.12454 168.330324,206.793889 C156.313256,193.323546 148.145811,178.455213 147.131383,163.012006 Z" id="Path" fill="#FF8364" fill-rule="nonzero"></path>
                <polygon id="Path" fill="#F25E66" fill-rule="nonzero" points="452 141 468.543542 70.5065067 485.10008 0 517.069534 16.7612367 549 33.5224735 500.525991 87.2677434"></polygon>
                <polygon id="Path" fill="#DDF1F9" fill-rule="nonzero" points="623 32 941 32 941 228 623 228"></polygon>
                <polygon id="Path" fill="#262626" fill-rule="nonzero" points="642 48 670 48 670 212 642 212"></polygon>
                <polygon id="Path" fill="#262626" fill-rule="nonzero" points="684 72 712 72 712 212 684 212"></polygon>
                <polygon id="Path" fill="#262626" fill-rule="nonzero" points="726 108 754 108 754 212 726 212"></polygon>
                <polygon id="Path" fill="#262626" fill-rule="nonzero" points="768 157 796 157 796 212 768 212"></polygon>
                <polygon id="Path" fill="#262626" fill-rule="nonzero" points="810 109 838 109 838 212 810 212"></polygon>
                <polygon id="Path" fill="#262626" fill-rule="nonzero" points="852 73 880 73 880 212 852 212"></polygon>
                <polygon id="Path" fill="#262626" fill-rule="nonzero" points="894 48 922 48 922 212 894 212"></polygon>
                <line x1="472" y1="416" x2="532" y2="356" id="Path" stroke="#000000" stroke-linecap="round" stroke-linejoin="round"></line>
                <line x1="566" y1="388" x2="630" y2="324" id="Path" stroke="#000000" stroke-linecap="round" stroke-linejoin="round"></line>
                <line x1="663" y1="355" x2="677" y2="341" id="Path" stroke="#000000" stroke-linecap="round" stroke-linejoin="round"></line>
                <line x1="732" y1="395" x2="815" y2="312" id="Path" stroke="#000000" stroke-linecap="round" stroke-linejoin="round"></line>
                <line x1="532" y1="356" x2="564" y2="388" id="Path" stroke="#000000" stroke-linecap="round" stroke-linejoin="round"></line>
                <line x1="630" y1="325" x2="662" y2="357" id="Path" stroke="#000000" stroke-linecap="round" stroke-linejoin="round"></line>
                <line x1="678" y1="340" x2="732" y2="394" id="Path" stroke="#000000" stroke-linecap="round" stroke-linejoin="round"></line>
                <line x1="817" y1="309" x2="838" y2="330" id="Path" stroke="#000000" stroke-linecap="round" stroke-linejoin="round"></line>
                <path d="M526,359.5 C526,356.462434 528.462434,354 531.5,354 C534.537566,354 537,356.462434 537,359.5 C537,362.537566 534.537566,365 531.5,365 C528.462434,365 526,362.537566 526,359.5 Z" id="Path" fill="#F25E66" fill-rule="nonzero"></path>
                <path d="M560,388.5 C560,385.462434 562.462434,383 565.5,383 C568.537566,383 571,385.462434 571,388.5 C571,391.537566 568.537566,394 565.5,394 C562.462434,394 560,391.537566 560,388.5 Z" id="Path" fill="#F25E66" fill-rule="nonzero"></path>
                <path d="M657,353.500045 C657,351.273719 658.342202,349.266995 660.399838,348.416898 C662.457474,347.5668 664.824648,348.041027 666.396029,349.618142 C667.96741,351.195257 668.433011,353.564143 667.575422,355.618668 C666.717834,357.673192 664.706233,359.008059 662.479921,359 C659.450212,358.988946 657,356.529773 657,353.500045 Z" id="Path" fill="#F25E66" fill-rule="nonzero"></path>
                <path d="M624,324.5 C624,321.462434 626.462434,319 629.5,319 C632.537566,319 635,321.462434 635,324.5 C635,327.537566 632.537566,330 629.5,330 C626.462434,330 624,327.537566 624,324.5 Z" id="Path" fill="#F25E66" fill-rule="nonzero"></path>
                <path d="M673,340.5 C673,337.462434 675.462434,335 678.5,335 C681.537566,335 684,337.462434 684,340.5 C684,343.537566 681.537566,346 678.5,346 C675.462434,346 673,343.537566 673,340.5 Z" id="Path" fill="#F25E66" fill-rule="nonzero"></path>
                <path d="M726,393.5 C726,390.462434 728.462434,388 731.5,388 C734.537566,388 737,390.462434 737,393.5 C737,396.537566 734.537566,399 731.5,399 C728.462434,399 726,396.537566 726,393.5 L726,393.5 Z" id="Path" fill="#F25E66" fill-rule="nonzero"></path>
                <path d="M810,311.5 C810,308.462434 812.462434,306 815.5,306 C818.537566,306 821,308.462434 821,311.5 C821,314.537566 818.537566,317 815.5,317 C812.462434,317 810,314.537566 810,311.5 L810,311.5 Z" id="Path-Copy" fill="#F25E66" fill-rule="nonzero"></path>
            </g>
        </g>
    </g>
</svg>