<?xml version="1.0" encoding="UTF-8"?>
<svg width="239px" height="239px" viewBox="0 0 239 239" version="1.1" xmlns="http://www.w3.org/2000/svg" xmlns:xlink="http://www.w3.org/1999/xlink">
    <title>Budget</title>
    <defs>
        <linearGradient x1="50%" y1="100%" x2="50%" y2="0%" id="linearGradient-1">
            <stop stop-color="#D4D8E1" offset="0%"></stop>
            <stop stop-color="#F3F4F5" offset="100%"></stop>
        </linearGradient>
        <linearGradient x1="50%" y1="100%" x2="50%" y2="0%" id="linearGradient-2">
            <stop stop-color="#A0A6BA" offset="0%"></stop>
            <stop stop-color="#C6CCDA" offset="100%"></stop>
        </linearGradient>
        <linearGradient x1="50.0284512%" y1="100%" x2="50.0284512%" y2="0%" id="linearGradient-3">
            <stop stop-color="#6AB891" offset="0%"></stop>
            <stop stop-color="#85CBA9" offset="100%"></stop>
        </linearGradient>
        <linearGradient x1="50%" y1="100%" x2="50%" y2="0%" id="linearGradient-4">
            <stop stop-color="#6AB891" offset="0%"></stop>
            <stop stop-color="#85CBA9" offset="100%"></stop>
        </linearGradient>
        <linearGradient x1="50%" y1="100%" x2="50%" y2="0%" id="linearGradient-5">
            <stop stop-color="#E9A254" offset="0%"></stop>
            <stop stop-color="#F4BB79" offset="100%"></stop>
        </linearGradient>
    </defs>
    <g id="Page-1" stroke="none" stroke-width="1" fill="none" fill-rule="evenodd">
        <g id="img1" transform="translate(-469.000000, -1683.000000)" fill-rule="nonzero">
            <g id="Group-2-Copy" transform="translate(0.000000, 1437.000000)">
                <g id="Budget" transform="translate(469.000000, 246.000000)">
                    <polygon id="Path" fill="url(#linearGradient-1)" points="235.265625 194.1875 235.265625 3.734375 3.734375 3.734375 3.734375 194.1875"></polygon>
                    <polygon id="Path" fill="#C7CDD8" points="235.265625 194.1875 235.265625 186.71875 3.734375 186.71875 3.734375 194.1875"></polygon>
                    <rect id="Rectangle" fill="url(#linearGradient-2)" x="3.734375" y="3.734375" width="231.53125" height="29.875"></rect>
                    <path d="M138.171875,108.296875 L100.828125,108.296875 L47.50125,158.63625 C18.1490625,186.382656 38.24,235.265625 77.97375,235.265625 L161.02625,235.265625 C179.170368,235.198668 195.451527,224.107885 202.156117,207.247814 C208.860707,190.387744 204.642013,171.144972 191.49875,158.63625 L138.171875,108.296875 Z" id="Path" fill="url(#linearGradient-3)"></path>
                    <path d="M161.02625,235.265625 L77.97375,235.265625 C65.2345079,235.260347 53.1122633,229.778988 44.6941088,220.217451 C36.2759544,210.655914 32.3743211,197.936976 33.9828125,185.299688 C36.7864835,207.458316 55.6384563,224.069817 77.97375,224.0625 L161.02625,224.0625 C183.355285,224.053248 202.197867,207.450022 205.017187,185.299688 C206.625679,197.936976 202.724046,210.655914 194.305891,220.217451 C185.887737,229.778988 173.765492,235.260347 161.02625,235.265625 Z" id="Path" fill="#4DA67F"></path>
                    <polygon id="Path" fill="url(#linearGradient-4)" points="138.171875 93.359375 100.828125 93.359375 89.625 56.015625 149.375 56.015625"></polygon>
                    <path d="M149.375,56.015625 C141.271406,83.0525 142.914531,77.6003125 138.171875,93.359375 L100.828125,93.359375 C96.048125,77.4509375 97.7659375,83.0898438 89.625,56.015625 L149.375,56.015625 Z" id="Path" fill="url(#linearGradient-4)"></path>
                    <polygon id="Path" fill="#4DA67F" points="141.532812 82.15625 138.171875 93.359375 100.828125 93.359375 97.4671875 82.15625"></polygon>
                    <path d="M138.171875,108.296875 L100.828125,108.296875 C96.7032483,108.296875 93.359375,104.953002 93.359375,100.828125 C93.359375,96.7032483 96.7032483,93.359375 100.828125,93.359375 L138.171875,93.359375 C142.296752,93.359375 145.640625,96.7032483 145.640625,100.828125 C145.640625,104.953002 142.296752,108.296875 138.171875,108.296875 Z" id="Path" fill="#8A6762"></path>
                    <path d="M151.615625,165.582188 L158.822969,161.437031 L151.354219,148.516094 L144.109531,152.698594 C139.523759,147.740464 133.550614,144.278903 126.96875,142.765156 L126.96875,134.4375 L112.03125,134.4375 L112.03125,142.765156 C105.449386,144.278903 99.4762411,147.740464 94.8904687,152.698594 L87.6457812,148.516094 L80.1770312,161.437031 L87.384375,165.582188 C85.4054119,172.056634 85.4054119,178.974616 87.384375,185.449062 L80.1770312,189.594219 L87.6457812,202.515156 L94.8904687,198.332656 C99.4762411,203.290786 105.449386,206.752347 112.03125,208.266094 L112.03125,216.59375 L126.96875,216.59375 L126.96875,208.266094 C133.550614,206.752347 139.523759,203.290786 144.109531,198.332656 L151.354219,202.515156 L158.822969,189.594219 L151.615625,185.449062 C153.594588,178.974616 153.594588,172.056634 151.615625,165.582188 Z" id="Path" fill="url(#linearGradient-5)"></path>
                    <path d="M235.265625,0 L3.734375,0 C1.67193664,0 0,1.67193664 0,3.734375 L0,194.1875 C0,196.249938 1.67193664,197.921875 3.734375,197.921875 L30.4351562,197.921875 C33.9440078,221.485732 54.1501383,238.945861 77.97375,239 L161.02625,239 C184.849862,238.945861 205.055992,221.485732 208.564844,197.921875 L235.265625,197.921875 C237.328063,197.921875 239,196.249938 239,194.1875 L239,3.734375 C239,1.67193664 237.328063,0 235.265625,0 Z M7.46875,7.46875 L231.53125,7.46875 L231.53125,29.875 L7.46875,29.875 L7.46875,7.46875 Z M161.02625,231.53125 L77.97375,231.53125 C61.3480529,231.49241 46.420283,221.337323 40.2782566,205.887701 C34.1362301,190.438079 38.0170083,172.805619 50.0779687,161.362344 L102.321875,112.03125 L136.678125,112.03125 L188.959375,161.362344 C201.025223,172.810314 204.903738,190.451899 198.752106,205.904994 C192.600475,221.358089 177.658753,231.507637 161.02625,231.53125 L161.02625,231.53125 Z M135.408437,89.625 L103.591562,89.625 L94.6290625,59.75 L144.370937,59.75 L135.408437,89.625 Z M100.828125,97.09375 L138.171875,97.09375 C140.234313,97.09375 141.90625,98.7656866 141.90625,100.828125 C141.90625,102.890563 140.234313,104.5625 138.171875,104.5625 L100.828125,104.5625 C98.7656866,104.5625 97.09375,102.890563 97.09375,100.828125 C97.09375,98.7656866 98.7656866,97.09375 100.828125,97.09375 Z M209.125,190.453125 C209.038277,177.399998 203.645906,164.943622 194.1875,155.9475 L145.005781,109.64125 C148.05647,107.243375 149.649134,103.437638 149.215622,99.581659 C148.782109,95.7256802 146.384157,92.3685919 142.877187,90.7079687 C153.85625,53.9990625 154.080312,55.8289062 152.3625,53.775 C150.644687,51.7210937 154.267031,52.28125 89.625,52.28125 C88.414723,52.2288474 87.2542229,52.7667723 86.512031,53.7241998 C85.7698391,54.6816274 85.5381819,55.9395855 85.890625,57.0985937 L95.9734375,90.7079687 C92.4664678,92.3685919 90.0685159,95.7256802 89.6350034,99.581659 C89.201491,103.437638 90.7941549,107.243375 93.8448437,109.64125 L44.8125,155.9475 C35.354094,164.943622 29.9617233,177.399998 29.875,190.453125 L7.46875,190.453125 L7.46875,37.34375 L231.53125,37.34375 L231.53125,190.453125 L209.125,190.453125 Z" id="Shape" fill="#000000"></path>
                    <path d="M22.40625,14.9375 C20.3438116,14.9375 18.671875,16.6094366 18.671875,18.671875 C18.671875,20.7343134 20.3438116,22.40625 22.40625,22.40625 C24.4686884,22.40625 26.140625,20.7343134 26.140625,18.671875 C26.140625,16.6094366 24.4686884,14.9375 22.40625,14.9375 Z" id="Path" fill="#000000"></path>
                    <path d="M41.078125,14.9375 C39.0156866,14.9375 37.34375,16.6094366 37.34375,18.671875 C37.34375,20.7343134 39.0156866,22.40625 41.078125,22.40625 C43.1405634,22.40625 44.8125,20.7343134 44.8125,18.671875 C44.8125,16.6094366 43.1405634,14.9375 41.078125,14.9375 Z" id="Path" fill="#000000"></path>
                    <path d="M59.75,14.9375 C57.6875616,14.9375 56.015625,16.6094366 56.015625,18.671875 C56.015625,20.7343134 57.6875616,22.40625 59.75,22.40625 C61.8124384,22.40625 63.484375,20.7343134 63.484375,18.671875 C63.484375,16.6094366 61.8124384,14.9375 59.75,14.9375 Z" id="Path" fill="#000000"></path>
                    <path d="M117.632812,168.046875 L126.96875,168.046875 C129.031188,168.046875 130.703125,166.374938 130.703125,164.3125 C130.703125,162.250062 129.031188,160.578125 126.96875,160.578125 L123.234375,160.578125 L123.234375,156.84375 C123.234375,154.781312 121.562438,153.109375 119.5,153.109375 C117.437562,153.109375 115.765625,154.781312 115.765625,156.84375 L115.765625,160.578125 C110.609529,161.093735 106.847672,165.69156 107.363281,170.847656 C107.878891,176.003752 112.476717,179.76561 117.632812,179.25 L121.367187,179.25 C122.398407,179.25 123.234375,180.085968 123.234375,181.117188 C123.234375,182.148407 122.398407,182.984375 121.367187,182.984375 L112.03125,182.984375 C109.968812,182.984375 108.296875,184.656312 108.296875,186.71875 C108.296875,188.781188 109.968812,190.453125 112.03125,190.453125 L115.765625,190.453125 L115.765625,194.1875 C115.765625,196.249938 117.437562,197.921875 119.5,197.921875 C121.562438,197.921875 123.234375,196.249938 123.234375,194.1875 L123.234375,190.453125 C128.390471,189.937515 132.152328,185.33969 131.636719,180.183594 C131.121109,175.027498 126.523283,171.26564 121.367187,171.78125 L117.632812,171.78125 C116.601593,171.78125 115.765625,170.945282 115.765625,169.914062 C115.765625,168.882843 116.601593,168.046875 117.632812,168.046875 Z" id="Path" fill="#000000"></path>
                    <path d="M162.407969,162.407969 C162.968125,160.42875 162.706719,160.690156 154.565781,146.648906 C154.07315,145.76403 153.242246,145.117188 152.263562,144.856675 C151.284877,144.596162 150.242353,144.744322 149.375,145.267188 L144.595,148.030625 C140.630097,144.322601 135.882471,141.553152 130.703125,139.927031 L130.703125,134.4375 C130.703125,132.375062 129.031188,130.703125 126.96875,130.703125 L112.03125,130.703125 C109.968812,130.703125 108.296875,132.375062 108.296875,134.4375 L108.296875,139.927031 C103.081252,141.546115 98.2956243,144.315398 94.2929687,148.030625 L89.625,145.267188 C87.8400465,144.253722 85.571741,144.870834 84.54625,146.648906 C74.5007812,164.01375 73.79125,161.997187 83.1645312,167.412031 C81.987719,172.75034 81.987719,178.28091 83.1645312,183.619219 C73.8659375,188.996719 74.5007812,186.980156 84.54625,204.382344 C85.571741,206.160416 87.8400465,206.777528 89.625,205.764063 L94.405,203.000625 C98.3699025,206.708649 103.117529,209.478098 108.296875,211.104219 L108.296875,216.59375 C108.296875,218.656188 109.968812,220.328125 112.03125,220.328125 L126.96875,220.328125 C129.031188,220.328125 130.703125,218.656188 130.703125,216.59375 L130.703125,211.104219 C135.918748,209.485135 140.704376,206.715852 144.707031,203.000625 C154.042969,208.378125 152.175781,208.900937 162.034531,191.461406 C162.527242,190.591439 162.650526,189.56023 162.376787,188.59863 C162.103047,187.637031 161.455145,186.825357 160.578125,186.345312 C153.333438,182.162813 156.84375,186.009219 156.84375,175.515625 C156.84375,165.022031 153.408125,168.868437 160.578125,164.685937 C161.472146,164.206655 162.132725,163.384302 162.407969,162.407969 Z M148.067969,166.7025 C149.822305,172.44696 149.822305,178.58429 148.067969,184.32875 C146.985,187.727031 150.047188,188.847344 153.706875,190.938594 L149.9725,197.436406 L145.976719,195.121094 C140.860625,192.170938 140.449844,201.3575 126.147187,204.606406 C124.410133,204.997598 123.190871,206.560755 123.234375,208.340781 L123.234375,212.859375 L115.765625,212.859375 L115.765625,208.266094 C115.765625,202.365781 107.624687,206.585625 97.6165625,195.793281 C95.151875,193.141875 92.5004687,195.419844 89.0275,197.436406 L85.293125,190.938594 L89.2515625,188.660625 C92.9859375,186.42 89.625,183.805938 89.625,175.515625 C89.625,167.225312 93.1726562,164.61125 89.2515625,162.370625 L85.293125,160.092656 L89.0275,153.594844 C92.761875,155.686094 95.1892187,157.852031 97.6165625,155.237969 C107.475312,144.632344 115.765625,148.553438 115.765625,142.765156 L115.765625,138.171875 L123.234375,138.171875 C123.234375,142.354375 122.636875,145.640625 126.147187,146.424844 C140.263125,149.636406 140.897969,158.822969 145.976719,155.910156 L149.9725,153.594844 L153.706875,160.092656 C150.121875,162.146563 146.985,163.266875 148.067969,166.7025 L148.067969,166.7025 Z" id="Shape" fill="#000000"></path>
                </g>
            </g>
        </g>
    </g>
</svg>