<?xml version="1.0" encoding="UTF-8"?>
<svg width="820px" height="838px" viewBox="0 0 820 838" version="1.1" xmlns="http://www.w3.org/2000/svg" xmlns:xlink="http://www.w3.org/1999/xlink">
    <title>revenue-graph-colour</title>
    <g id="Page-1" stroke="none" stroke-width="1" fill="none" fill-rule="evenodd">
        <g id="img2" transform="translate(-1683.000000, -4430.000000)" fill-rule="nonzero">
            <g id="revenue-graph-colour" transform="translate(1683.000000, 4430.000000)">
                <rect id="Rectangle" fill="#DEF1F9" x="399" y="0" width="393" height="571"></rect>
                <rect id="Rectangle" fill="#F25E66" x="0" y="698" width="118" height="140"></rect>
                <rect id="Rectangle" fill="#F25E66" x="152" y="592" width="118" height="246"></rect>
                <rect id="Rectangle" fill="#F25E66" x="304" y="470" width="118" height="367"></rect>
                <rect id="Rectangle" fill="#DE8E68" x="195" y="602" width="14" height="10"></rect>
                <rect id="Rectangle" fill="#DE8E68" x="345" y="473" width="14" height="10"></rect>
                <path d="M288.705492,317 C296.867505,317 362.351335,326.295621 391,341.088211 C387.057748,360.376829 361.298435,474 361.298435,474 L345.26008,474 C345.26008,474 339.22019,378.344534 337.914268,379.140364 C329.238048,383.628188 294.802516,394.950303 258,395.5" id="Path" fill="#56CAD8"></path>
                <polyline id="Path" fill="#74D5DE" points="288 318 209.190468 604 195 604 195 318"></polyline>
                <path d="M302.394423,197.067835 C306.371818,198.793727 320.001569,210.155166 322.43721,214.244957 C344.694217,186.60615 381.401055,158.713776 384.402553,155.491021 C387.40405,152.268266 388.338943,134.314084 388.338943,130.387884 C388.338943,126.461685 393.767881,116 399,116 L399,163.073493 C399,163.073493 337.575911,249 327.464309,249 C320.903658,249 288.502246,234.800246 284,230.505966" id="Path" fill="#DE8E68"></path>
                <path d="M253.384822,181.280161 C261.438523,168.298542 308,188.403825 308,194.610661 C308,200.817498 290.735083,229.4014 282.999291,228.995725 C276.836742,228.703638 245.045818,194.756704 253.384822,181.280161 Z" id="Path" fill="#FCC486"></path>
                <path d="M241.206869,162 C300.384685,162 297.07438,309.954591 287.730514,317.191856 C278.386648,324.429121 201.695199,327.941324 194.683223,317.191856 C187.671247,306.442388 184.956145,162 241.206869,162 Z" id="Path" fill="#FED385"></path>
                <path d="M177.737064,209 C167.173964,212.320033 140,263.571498 140,271.39202 C140,287.787242 195.331304,360 202.370639,360 C205.304378,354.909283 210,344.35076 210,344.35076 C210,344.35076 176.761882,282.344028 170.66495,274.326764 C175.942402,269.408198 195.10185,243.618512 198.232264,235.601249 C201.362679,227.583985 200.190822,210.369001 200.190822,210.369001 L177.737064,209 Z" id="Path" fill="#DE8E68"></path>
                <path d="M215.116666,178.141254 C228.476052,185.555175 210.855622,233.597383 204.654789,233.992792 C198.453956,234.388201 169,218.41532 169,210.589515 C169,204.29592 201.221606,170.406063 215.116666,178.141254 Z" id="Path" fill="#FED892"></path>
                <polygon id="Path" fill="#000000" points="196 610 196 622 232 622 232 617.645946 210.141704 610"></polygon>
                <polygon id="Path" fill="#000000" points="344 482 344 494 381 494 381 489.654054 358.539565 482"></polygon>
                <rect id="Rectangle" fill="#262626" x="399" y="0" width="393" height="37"></rect>
                <rect id="Rectangle" fill="#262626" x="490" y="83" width="330" height="94"></rect>
                <rect id="Rectangle" fill="#F9F9F9" x="509" y="101" width="295" height="9"></rect>
                <rect id="Rectangle" fill="#F9F9F9" x="509" y="122" width="295" height="9"></rect>
                <rect id="Rectangle" fill="#F9F9F9" x="509" y="142" width="295" height="9"></rect>
                <rect id="Rectangle" fill="#262626" x="490" y="215" width="330" height="94"></rect>
                <circle id="Oval" fill="#F9F9F9" cx="534" cy="262" r="28"></circle>
                <rect id="Rectangle" fill="#F9F9F9" x="583" y="234" width="215" height="27"></rect>
                <rect id="Rectangle" fill="#F9F9F9" x="583" y="270" width="215" height="10"></rect>
                <rect id="Rectangle" fill="#FFFFFF" x="438" y="350" width="310" height="153"></rect>
                <path d="M256,133 L232,133 L232,166.674994 C232,175.038016 256,175.178363 256,166.674994 L256,133 Z" id="Path" fill="#D37C59"></path>
                <path d="M273.74158,118.401331 C269.583419,100.673693 256.361126,88.5989384 244.207135,91.4049282 C233.795298,93.8591466 227.558057,106.392022 228.593489,121.09279 C224.890902,122.157486 222.538984,125.771408 223.076205,129.570566 C223.613425,133.369725 226.876138,136.196838 230.730093,136.202595 C231.20445,136.198027 231.677461,136.151486 232.143539,136.063523 C237.780887,149.578086 248.915882,157.996055 259.261977,155.590921 C271.415968,152.784931 277.89974,136.120788 273.74158,118.401331 Z" id="Path" fill="#DE8E68"></path>
                <path d="M234.485195,126.755903 C237.580081,126.755903 238.120458,122.462457 238.120458,118.654285 C238.120458,113.554789 242.942912,108.948793 245.914984,108.076943 C251.29419,106.514195 254.037012,106.152295 257.295648,104.375696 C260.554284,102.599098 264.435173,99.9259751 264.435173,99.9259751 C265.877152,101.670964 267.188037,103.5212 268.356999,105.461396 C271.345446,104.638896 287,100.888299 287,89.6200584 C287,82.2175643 280.810229,81.2470151 277.993719,78.927567 C274.997084,76.460069 276.282526,69 268.168686,69 C260.898161,69 257.320211,76.6739188 252.669695,79.6266914 C247.044863,83.2045635 236.008075,80.3258159 228.73755,87.8516848 C225.208726,91.5035819 224.381786,100.4935 222.187528,103.783497 C219.190893,108.241443 214,109.540992 214,116.343062 C214,121.335633 218.216577,129.766251 223.292844,131 C223.292844,126.065004 225.085913,121.343858 228.721175,121.343858 C232.675751,121.343858 229.941117,126.755903 234.485195,126.755903 Z" id="Path" fill="#FD8369"></path>
            </g>
        </g>
    </g>
</svg>