<?xml version="1.0" encoding="UTF-8"?>
<svg width="822px" height="970px" viewBox="0 0 822 970" version="1.1" xmlns="http://www.w3.org/2000/svg" xmlns:xlink="http://www.w3.org/1999/xlink">
    <title>unlock</title>
    <g id="Page-1" stroke="none" stroke-width="1" fill="none" fill-rule="evenodd">
        <g id="img2" transform="translate(-1712.000000, -2547.000000)">
            <g id="Group" transform="translate(0.000000, 2465.000000)">
                <g id="unlock" transform="translate(1712.000000, 98.000000)">
                    <path d="M690.187274,232.644538 C763.98786,299.21307 791.215787,428.974493 763.196287,543.735474 C734.981606,658.496455 651.692992,758.278702 537.836666,824.803818 C423.980341,891.166122 279.762328,924.553503 183.450719,872.410142 C87.1391112,820.266782 39.2218632,682.983429 14.9433572,548.283365 C-9.12912316,413.572447 -9.5194877,281.629339 54.6087324,217.231637 C118.736953,153.051019 247.231949,156.209578 371.704022,159.368137 C496.219468,162.722071 616.58187,166.086859 690.187274,232.644538 Z" id="Path" fill="#D5D5D5" fill-rule="nonzero"></path>
                    <rect id="Rectangle" fill="#E49D75" fill-rule="nonzero" x="606" y="911" width="24" height="17"></rect>
                    <polygon id="Rectangle" fill="#E49D75" fill-rule="nonzero" transform="translate(745.549647, 897.332796) rotate(-38.930000) translate(-745.549647, -897.332796) " points="734.314788 887.377871 756.781438 887.381333 756.784505 907.28772 734.317856 907.284258"></polygon>
                    <rect id="Rectangle" fill="#E49D75" fill-rule="nonzero" x="635" y="259" width="19" height="22" rx="8.23"></rect>
                    <path d="M653.383472,596.976094 C656.617071,604.441639 681.407998,754.251672 685.051187,768.423185 C688.694375,782.594697 746.974611,874.980807 750.94116,880.504007 C752.159149,888.490403 734.15878,902 725.622078,902 C717.085376,895.207223 617.382734,749.770175 614.989871,743.313782 C612.597007,736.857388 604.566903,582.348836 653.383472,596.976094 Z" id="Path" fill="#5FC5D1" fill-rule="nonzero"></path>
                    <path d="M548.055147,572.361749 C546.909957,578.539596 563.956922,719.763003 566.072796,738.730076 C568.18867,757.697149 600.85384,910.49589 603.74408,914.310981 C606.63432,918.126072 628.62196,917.302359 632.417446,915.394814 C636.212931,913.487268 625.00098,756.0714 625.00098,744.658641 C625.00098,733.245882 654.448712,627.984046 650.664133,597.49583 C646.879554,567.007615 548.055147,572.361749 548.055147,572.361749 Z" id="Path" fill="#6BD5E1" fill-rule="nonzero"></path>
                    <rect id="Rectangle" fill="#E49D75" fill-rule="nonzero" x="610" y="401" width="22" height="39"></rect>
                    <rect id="Rectangle" fill="#5FC5D1" fill-rule="nonzero" x="102" y="130" width="412" height="412" rx="22.42"></rect>
                    <path d="M333.733149,319.748697 C345.287341,309.196071 349.150125,292.667575 343.461229,278.123145 C337.772333,263.578715 323.697996,254 308.016259,254 C292.334523,254 278.260186,263.578715 272.57129,278.123145 C266.882394,292.667575 270.745178,309.196071 282.299369,319.748697 L253,438 L363,438 L333.733149,319.748697 Z" id="Path" fill="#373737" fill-rule="nonzero"></path>
                    <path d="M177,130 C177.658678,58.0132734 236.787592,0 309.5,0 C382.212408,0 441.341322,58.0132734 442,130" id="Path" stroke="#5FC5D1" stroke-width="32" stroke-linecap="round" stroke-linejoin="round"></path>
                    <ellipse id="Oval" fill="#E49D75" fill-rule="nonzero" cx="616.5" cy="364" rx="31.5" ry="42"></ellipse>
                    <path d="M613.157882,432 C574.591463,432 540.215137,538.078366 546.818375,573.281941 C548.770828,583.678795 641.062596,604.657385 655.168516,601.721035 C660.181273,594.956554 680.638148,432 613.157882,432 Z" id="Path" fill="#FFD98E" fill-rule="nonzero"></path>
                    <path d="M602.482252,491.988684 C619.503817,479.528895 592.295267,419.150197 585.936512,418.113699 C574.224724,416.204362 545.102059,438.843646 546.021267,448.357601 C546.507907,453.37643 585.147075,504.677593 602.482252,491.988684 Z" id="Path" fill="#FFE4AD" fill-rule="nonzero"></path>
                    <path d="M551.251901,444 C546.658269,438.493045 535.174189,411.542504 533.917441,405.148377 C532.660693,398.75425 529.583826,302.647604 529.583826,296.956723 C529.583826,291.265842 522,276.90881 522,268.340031 C522,259.771252 530.732234,248.151468 535.174189,248 C539.919498,251.36476 546.506593,271.098918 546.809946,276.12983 C548.467553,265.310665 556.311396,262.822257 558.456536,262.822257 C560.601675,262.822257 560.31999,279.537867 551.43608,290.789799 C551.750267,299.055641 562.270117,380.924266 563.971061,385.66306 C565.672005,390.401855 585.043264,421.463679 585,424.211747 C584.956591,426.959815 551.251901,444 551.251901,444 Z" id="Path" fill="#E49D75" fill-rule="nonzero"></path>
                    <polygon id="Rectangle" fill="#F25E66" fill-rule="nonzero" transform="translate(593.318144, 269.334679) rotate(7.780000) translate(-593.318144, -269.334679) " points="399.1464 263.797731 787.490358 263.781313 787.489889 274.871627 399.145931 274.888045"></polygon>
                    <polygon id="Rectangle" fill="#F25E66" fill-rule="nonzero" transform="translate(409.768996, 266.067007) rotate(7.780000) translate(-409.768996, -266.067007) " points="397.895206 250.00661 421.644145 250.005606 421.642786 282.127405 397.893847 282.128409"></polygon>
                    <polygon id="Rectangle" fill="#F25E66" fill-rule="nonzero" transform="translate(437.869135, 269.909941) rotate(7.780000) translate(-437.869135, -269.909941) " points="431.482542 253.849311 444.257086 253.848771 444.255728 285.97057 431.481184 285.97111"></polygon>
                    <path d="M657.055165,343 C656.117554,337.935984 655.270315,301.237889 656.71627,296.056354 C658.162224,290.874818 662.07082,287.092831 663.821781,279.357919 C664.420496,276.697708 663.471589,267.488463 661.562477,267.103854 C657.450544,266.270535 657.213317,270.629435 656.671084,273.834509 C654.569931,284.76381 650.28855,282.765981 648.311659,282.509575 C646.334768,282.253169 639.545559,281.142077 637.320145,281.088659 C635.094731,281.035241 640.765584,285.362091 639.037216,292.274367 C637.681634,297.712308 631.310396,333.940325 630,339.869711 C634.755835,340.051332 657.055165,343 657.055165,343 Z" id="Path" fill="#E49D75" fill-rule="nonzero"></path>
                    <polygon id="Rectangle" fill="#F25E66" fill-rule="nonzero" transform="translate(459.469336, 272.849483) rotate(7.780000) translate(-459.469336, -272.849483) " points="453.082744 256.788854 465.857287 256.788314 465.855929 288.910113 453.081385 288.910653"></polygon>
                    <polygon id="Rectangle" fill="#F25E66" fill-rule="nonzero" transform="translate(433.301355, 258.819571) rotate(7.780000) translate(-433.301355, -258.819571) " points="399.093363 253.129507 467.509828 253.126615 467.509346 264.509635 399.092881 264.512528"></polygon>
                    <path d="M796.91499,268.268699 C781.052084,266.108358 766.439531,277.211029 764.270781,293.071888 C762.102031,308.932747 773.19771,323.550252 789.058351,325.72716 C804.918991,327.904068 819.543134,316.816666 821.728452,300.958082 C822.77934,293.331909 820.754352,285.600878 816.099807,279.468957 C811.445262,273.337035 804.54324,269.307577 796.91499,268.268699 Z M812.550421,299.668861 C811.468797,307.581016 805.726892,314.062396 798.002498,316.09035 C790.278104,318.118303 782.092654,315.293394 777.263511,308.933046 C772.434367,302.572697 771.912702,293.929674 775.941798,287.034731 C779.970893,280.139789 787.757161,276.350989 795.6694,277.435274 C806.469931,278.915367 814.026882,288.868445 812.550421,299.668861 L812.550421,299.668861 Z" id="Shape" fill="#F25E66" fill-rule="nonzero"></path>
                    <path d="M552,290.858803 C550.544653,285.243496 547.711136,280.334175 547.248071,276.109118 L547.248071,276.239454 C546.939361,271.178075 540.235943,251.367012 535.406836,248 C530.886439,248.152059 522,259.817126 522,268.419298 C522,274.72973 526.189636,284.168224 528.416759,291 L551.955899,291 L551.955899,291 L552,290.858803 Z" id="Path" fill="#E49D75" fill-rule="nonzero"></path>
                    <path d="M589,338.783348 C589,353.388585 599.433743,362.396411 615.972102,367.420006 C615.972102,387.406119 619.095649,388.283083 619.095649,400.45231 C619.095649,426.67461 614.569246,413.56346 614.569246,458.840777 C614.569246,486.145749 626.14281,501 647.448688,501 C673.215211,501 688,474.073963 688,459.566167 C688,441.160753 669.565593,409.178641 668.272335,382.620712 C666.485885,346.892557 655.241116,317 627.041514,317 C602.951843,317 589,325.856252 589,338.783348 Z" id="Path" fill="#000000" fill-rule="nonzero"></path>
                    <circle id="Oval" fill="#E49D75" fill-rule="nonzero" cx="617.5" cy="369.5" r="8.5"></circle>
                    <polygon id="Path" fill="#000000" fill-rule="nonzero" points="760.228605 894 774 912.878643 745.190242 953.822944 718 954 718.352548 940.1564 729.27051 935.30948 738.976589 911.251937"></polygon>
                    <polyline id="Path" fill="#000000" fill-rule="nonzero" points="632 928 632 954 552 954 552 942.487354 604.783393 928 632 928"></polyline>
                </g>
            </g>
        </g>
    </g>
</svg>