<?xml version="1.0" encoding="UTF-8"?>
<svg width="218px" height="217px" viewBox="0 0 218 217" version="1.1" xmlns="http://www.w3.org/2000/svg" xmlns:xlink="http://www.w3.org/1999/xlink">
    <title>Feedback Audience</title>
    <defs>
        <linearGradient x1="50%" y1="100%" x2="50%" y2="0%" id="linearGradient-1">
            <stop stop-color="#7AA8D7" offset="0%"></stop>
            <stop stop-color="#C3D2E7" offset="100%"></stop>
        </linearGradient>
        <linearGradient x1="50%" y1="100%" x2="50%" y2="0%" id="linearGradient-2">
            <stop stop-color="#7AA8D7" offset="0%"></stop>
            <stop stop-color="#C3D2E7" offset="100%"></stop>
        </linearGradient>
        <linearGradient x1="-1.61290323%" y1="52.1950113%" x2="0%" y2="47.7895177%" id="linearGradient-3">
            <stop stop-color="#7AA8D7" offset="0%"></stop>
            <stop stop-color="#C3D2E7" offset="100%"></stop>
        </linearGradient>
        <linearGradient x1="50%" y1="100%" x2="50%" y2="8.22387426e-16%" id="linearGradient-4">
            <stop stop-color="#D4D8E1" offset="0%"></stop>
            <stop stop-color="#F3F4F5" offset="100%"></stop>
        </linearGradient>
        <linearGradient x1="50%" y1="100%" x2="50%" y2="-0.0937514103%" id="linearGradient-5">
            <stop stop-color="#DA5466" offset="0%"></stop>
            <stop stop-color="#F4929C" offset="100%"></stop>
        </linearGradient>
        <linearGradient x1="50%" y1="100%" x2="50%" y2="0%" id="linearGradient-6">
            <stop stop-color="#E9A254" offset="0%"></stop>
            <stop stop-color="#F4BB79" offset="100%"></stop>
        </linearGradient>
        <linearGradient x1="-0.0102224366%" y1="50.0001241%" x2="99.9784985%" y2="50.0001241%" id="linearGradient-7">
            <stop stop-color="#7AA8D7" offset="0%"></stop>
            <stop stop-color="#C3D2E7" offset="100%"></stop>
        </linearGradient>
    </defs>
    <g id="Page-1" stroke="none" stroke-width="1" fill="none" fill-rule="evenodd">
        <g id="img1" transform="translate(-2233.000000, -1694.000000)" fill-rule="nonzero">
            <g id="Group-2-Copy" transform="translate(0.000000, 1437.000000)">
                <g id="Feedback-Audience" transform="translate(2233.000000, 257.000000)">
                    <path d="M109.5,162 C98.1781626,162 89,152.981736 89,141.857143 L89,135.142857 C89,124.018264 98.1781626,115 109.5,115 C120.821837,115 130,124.018264 130,135.142857 L130,141.857143 C130,152.981736 120.821837,162 109.5,162 Z" id="Path" fill="url(#linearGradient-1)"></path>
                    <path d="M177,169 C167.611159,169 160,161.351531 160,151.916667 L160,145.083333 C160,135.648469 167.611159,128 177,128 C186.388841,128 194,135.648469 194,145.083333 L194,151.916667 C194,161.351531 186.388841,169 177,169 Z" id="Path" fill="url(#linearGradient-2)"></path>
                    <path d="M41,169 C31.6111593,169 24,161.351531 24,151.916667 L24,145.083333 C24,135.648469 31.6111593,128 41,128 C50.3888407,128 58,135.648469 58,145.083333 L58,151.916667 C58,161.351531 50.3888407,169 41,169 L41,169 Z" id="Path" fill="url(#linearGradient-2)"></path>
                    <path d="M130,135 L130,141.75 C130,152.933766 120.821837,162 109.5,162 C98.1781626,162 89,152.933766 89,141.75 L89,135 C89,146.183766 98.1781626,155.25 109.5,155.25 C120.821837,155.25 130,146.183766 130,135 Z" id="Path" fill="#5B8DC9"></path>
                    <path d="M194,145 L194,151.857143 C194,161.324881 186.388841,169 177,169 C167.611159,169 160,161.324881 160,151.857143 L160,145 C160,154.467739 167.611159,162.142857 177,162.142857 C186.388841,162.142857 194,154.467739 194,145 Z" id="Path" fill="#5B8DC9"></path>
                    <path d="M58,145 L58,151.857143 C58,161.324881 50.3888407,169 41,169 C31.6111593,169 24,161.324881 24,151.857143 L24,145 C24,154.467739 31.6111593,162.142857 41,162.142857 C50.3888407,162.142857 58,154.467739 58,145 Z" id="Path" fill="#5B8DC9"></path>
                    <path d="M214,213 L4,213 L8.06451613,195.337976 C11.0959714,182.474838 21.246956,172.514504 34.1371961,169.754981 C47.0274361,166.995457 60.3495328,171.930708 68.3548387,182.431112 C70.2028744,184.898271 71.7070342,187.606454 72.8258065,190.480919 C145.208065,190.480919 145.03871,190.786608 145.03871,190.480919 C157.435484,159.368583 202.619355,162.968919 209.867742,195.439872 L214,213 Z" id="Path" fill="url(#linearGradient-3)"></path>
                    <path d="M4,13.2222222 L4,60.9259259 C4,66.5715034 8.54936464,71.1481481 14.1612903,71.1481481 L95.4516129,71.1481481 L109,95 L122.548387,71.1481481 L203.83871,71.1481481 C209.450635,71.1481481 214,66.5715034 214,60.9259259 L214,13.2222222 C214,7.57664478 209.450635,3 203.83871,3 L14.1612903,3 C8.54936464,3 4,7.57664478 4,13.2222222 Z" id="Path" fill="url(#linearGradient-4)"></path>
                    <path d="M109.5,23.5755033 C106.103606,20.1227128 100.949,19.0568837 96.4534859,20.8778472 C91.9579714,22.6988108 89.0131401,27.0454167 89,31.8792809 C89,43.7904374 109.5,54 109.5,54 C109.5,54 130,43.7904374 130,31.8792809 C129.98686,27.0454167 127.042029,22.6988108 122.546514,20.8778472 C118.051,19.0568837 112.896394,20.1227128 109.5,23.5755033 Z" id="Path" fill="url(#linearGradient-5)"></path>
                    <path d="M109.496216,54 C99.7173007,49.2460106 86.2456484,39.1396277 89.4938894,29 C94.9646112,46.5531915 123.925244,46.8191489 129.498542,29 C132.780975,39.1728723 119.240939,49.2792553 109.496216,54 Z" id="Path" fill="#CF4055"></path>
                    <polygon id="Path" fill="url(#linearGradient-6)" points="40.5 20 45.8564639 31.254 58 32.988 49.1501901 41.658 51.3127376 54 40.5 48.118 29.6872624 54 31.8498099 41.658 23 32.988 35.1435361 31.254"></polygon>
                    <polygon id="Path" fill="url(#linearGradient-6)" points="40.5 20 45.8564639 31.254 58 32.988 49.1501901 41.658 51.3127376 54 40.5 48.118 29.6872624 54 31.8498099 41.658 23 32.988 35.1435361 31.254"></polygon>
                    <path d="M52,54 L41,48.3023952 L30,54 L32.0307692,43 C37.9111007,44.4985033 44.0888993,44.4985033 49.9692308,43 L52,54 Z" id="Path" fill="#DD8B37"></path>
                    <path d="M187.455388,33.6000552 L180.514022,33.6000552 L182.284071,26.596082 C182.704662,25.0113692 182.349439,23.3251682 181.3228,22.0330416 C180.29616,20.740915 178.714752,19.9896756 177.04334,20 C168.60958,36.5580439 170.101974,29.6560703 170.101974,54 L183.012914,54 C185.997118,54.0075235 188.652273,52.1457039 189.607212,49.3759948 C190.744709,45.3509325 191.190419,41.16847 190.926071,37.0000422 C190.926071,36.0983096 190.560411,35.2335096 189.909532,34.5958883 C189.258652,33.9582671 188.37587,33.6000552 187.455388,33.6000552 Z" id="Path" fill="url(#linearGradient-7)"></path>
                    <rect id="Rectangle" fill="#5B8DC9" x="156" y="37" width="14" height="17"></rect>
                    <path d="M69,213 L73.15125,191.926954 C76.7300276,174.495819 91.9072284,162 109.5,162 C127.092772,162 142.269972,174.495819 145.84875,191.926954 L150,213 L69,213 Z" id="Path" fill="#9ABADE"></path>
                    <path d="M212.770302,195.190081 C209.951229,182.810575 201.010655,172.719405 189.05165,168.418985 C197.556481,161.650061 196.641619,153.188905 196.641619,145.844622 C196.641618,134.629501 187.539445,125.537849 176.311346,125.537849 C165.083247,125.537849 155.981074,134.629501 155.981074,145.844622 C155.981074,153.425817 155.066211,161.548527 163.537158,168.38514 C156.062861,171.06353 149.64834,176.070565 145.239913,182.667571 C140.603298,172.904335 132.262524,165.389264 122.063402,161.785439 C132.940098,154.068865 132.228538,143.712411 132.228538,135.691235 C132.228538,122.606927 121.609336,112 108.509887,112 C95.4104374,112 84.7912355,122.606927 84.7912355,135.691235 C84.7912355,143.204742 83.6391867,153.831953 94.9563718,161.785439 C84.7957664,165.435831 76.5060974,172.973145 71.9153961,182.73526 C67.5267714,176.112333 61.1067223,171.089107 53.6181507,168.418985 C62.1229815,161.650061 61.2081192,153.188905 61.2081192,145.844622 C61.208119,134.592117 52.0756054,125.47016 40.810079,125.47016 C29.5445525,125.47016 20.4120389,134.592117 20.4120387,145.844622 C20.4120387,153.561196 19.5310603,161.548527 27.9342396,168.38514 C15.9665942,172.691892 7.02434693,182.797711 4.21558819,195.190081 L0.0817660826,212.789285 C-0.329930855,214.658471 0.853351647,216.507107 2.72470154,216.918328 C4.59605144,217.32955 6.44682662,216.147635 6.85852363,214.278448 L10.8229268,196.611555 C13.8461561,183.745125 24.7825995,174.261097 37.9607903,173.077737 C51.1389811,171.894377 63.5935906,179.277963 68.8658552,191.399483 C68.6286687,192.448667 69.5774148,187.64273 64.5287304,212.856974 C64.1544605,214.726161 65.3680835,216.544491 67.2394334,216.918328 C69.1107833,217.292166 70.9312179,216.079946 71.3054879,214.210759 L75.3715425,193.227093 C78.7070296,177.607441 92.5203903,166.442625 108.509887,166.442625 C124.499383,166.442625 138.312744,177.607441 141.648231,193.227093 L145.782053,214.210759 C146.156323,216.079946 147.976758,217.292166 149.848108,216.918328 C151.719458,216.544491 152.933081,214.726161 152.558811,212.856974 C147.408475,187.168906 148.424989,192.313288 148.25557,191.433328 C160.047128,164.019184 199.758927,168.215917 206.264615,196.679244 L210.330669,214.278448 C210.789049,216.048225 212.571584,217.134604 214.356858,216.732239 C216.142131,216.329873 217.284897,214.584189 216.938008,212.789285 L212.770302,195.190081 Z M27.1887963,152.613547 L27.1887963,145.844622 C27.1887963,138.367875 33.2569117,132.306773 40.7423114,132.306773 C48.2277111,132.306773 54.2958265,138.367875 54.2958265,145.844622 L54.2958265,152.613547 C54.2958265,160.090294 48.2277111,166.151395 40.7423114,166.151395 C33.2569117,166.151395 27.1887963,160.090294 27.1887963,152.613547 Z M91.567993,142.46016 L91.567993,135.691235 C91.567993,126.345301 99.1531373,118.768924 108.509887,118.768924 C117.866637,118.768924 125.451781,126.345301 125.451781,135.691235 L125.451781,142.46016 C125.451781,151.806094 117.866637,159.382471 108.509887,159.382471 C99.1531373,159.382471 91.567993,151.806094 91.567993,142.46016 Z M162.723947,152.613547 L162.723947,145.844622 C162.723947,138.367875 168.792063,132.306773 176.277462,132.306773 C183.762862,132.306773 189.830977,138.367875 189.830977,145.844622 L189.830977,152.613547 C189.830977,160.090294 183.762862,166.151395 176.277462,166.151395 C168.792063,166.151395 162.723947,160.090294 162.723947,152.613547 Z" id="Shape" fill="#000000"></path>
                    <path d="M204.4375,0 L14.5625,0 C7.07213808,0 1,6.05042545 1,13.5140035 L1,60.8130157 C1,68.2765937 7.07213808,74.3270191 14.5625,74.3270191 L93.9709375,74.3270191 L106.550156,96.2872748 C107.1522,97.3457944 108.278945,98 109.5,98 C110.721055,98 111.8478,97.3457944 112.449844,96.2872748 L125.029062,74.3270191 L204.4375,74.3270191 C211.927862,74.3270191 218,68.2765937 218,60.8130157 L218,13.5140035 C218,6.05042545 211.927862,0 204.4375,0 Z M211.21875,60.8130157 C211.21875,64.5448047 208.182681,67.5700174 204.4375,67.5700174 L123.0625,67.5700174 C120.417812,67.5700174 120.926406,67.8740825 109.5,87.8410226 C98.0735938,67.9416525 98.5821875,67.5700174 95.9375,67.5700174 L14.5625,67.5700174 C10.817319,67.5700174 7.78125,64.5448047 7.78125,60.8130157 L7.78125,13.5140035 C7.78125,9.78221446 10.817319,6.75700174 14.5625,6.75700174 L204.4375,6.75700174 C208.182681,6.75700174 211.21875,9.78221446 211.21875,13.5140035 L211.21875,60.8130157 Z" id="Shape" fill="#000000"></path>
                    <path d="M109.524552,18.7035006 C92.4990698,7.11602808 67.179986,35.982467 108.00743,56.6354327 C108.961692,57.1215224 110.087413,57.1215224 111.041674,56.6354327 C151.599408,36.1187902 126.786031,6.94562408 109.524552,18.7035006 Z M109.524552,49.7511108 C78.3392626,32.2676596 98.6012724,16.6927333 107.130871,25.4855801 C107.763904,26.1307728 108.625615,26.4936845 109.524552,26.4936845 C110.423489,26.4936845 111.285201,26.1307728 111.918234,25.4855801 C120.481546,16.6927333 140.743556,32.2335788 109.524552,49.7511108 Z" id="Shape" fill="#000000"></path>
                    <path d="M59.0063985,29.0771283 L48.3194229,27.6105128 L43.5924914,17.9240293 C43.0201681,16.7473592 41.8227097,16 40.50971,16 C39.1967103,16 37.9992519,16.7473592 37.4269286,17.9240293 L32.6999971,27.6105128 C22.9721091,28.9406989 20.1976058,28.5314109 19.2385183,31.3964271 C18.2794307,34.2614434 20.0263402,34.8071607 27.9045594,42.3448821 C26.1233968,52.2701169 24.9930436,54.5553084 27.3565093,56.2947826 C29.7199751,58.0342567 30.781822,56.6017486 40.50971,51.4856482 C50.511623,56.942822 50.4088636,56.942822 51.6419762,56.942822 C52.660944,56.957611 53.6336135,56.5198515 54.2957282,55.7484745 C54.9578429,54.9770975 55.24064,53.9522131 55.0672889,52.9522636 L53.1833669,42.3448821 L60.9588267,34.9094828 C61.9040832,33.9969756 62.2404517,32.6257582 61.824121,31.382082 C61.4077902,30.1384058 60.3124483,29.242394 59.0063985,29.0771283 Z M47.0178041,47.2222311 C39.4821162,43.1975655 41.5715569,43.1975655 34.0016159,47.2222311 C35.4745004,38.8318264 36.0910567,40.7418372 29.959747,34.8753754 C38.4545224,33.6816186 36.8103723,34.8753754 40.50971,27.2353321 C44.2433008,34.8753754 42.5991507,33.6816186 51.0596731,34.8753754 C44.8598571,40.8100519 45.5449196,38.8659338 47.0178041,47.2222311 Z" id="Shape" fill="#000000"></path>
                    <path d="M187.064141,29.6666157 L184.611523,29.6666157 L185.32687,26.8649595 C185.963865,24.2501173 185.369919,21.4866912 183.715395,19.3673336 C182.060872,17.2479761 179.528589,16.0068662 176.844899,16 C174.085703,16 174.051639,17.3666616 168.05635,29.3932834 C167.502413,30.5637958 167.112655,31.8055718 166.898169,33.0832696 L156.406414,33.0832696 C154.525104,33.0832696 153,34.6129577 153,36.4999235 L153,53.5831932 C153,55.470159 154.525104,56.9999239 156.406414,56.9999239 L182.703931,56.9999239 C187.049132,57.0166483 190.929768,54.275591 192.378147,50.1665392 C193.749877,45.7501772 194.258794,41.1097565 193.876969,36.4999235 C193.876969,34.6876176 193.159191,32.949539 191.881538,31.6680452 C190.603885,30.3865514 188.871015,29.6666157 187.064141,29.6666157 Z M159.812828,39.9165775 L166.625656,39.9165775 L166.625656,50.1665392 L159.812828,50.1665392 L159.812828,39.9165775 Z M182.703931,50.1665392 L173.438485,50.1665392 C173.438485,30.6232788 172.24624,36.2607578 178.479977,23.7558044 C179.774415,25.9082964 175.277948,32.2632727 177.560246,35.2015951 C178.888747,36.8757555 180.080992,36.4999235 187.064141,36.4999235 C187.064141,41.3857387 187.609167,50.1665392 182.703931,50.1665392 Z" id="Shape" fill="#000000"></path>
                </g>
            </g>
        </g>
    </g>
</svg>